<?xml version="1.0" encoding="UTF-8" standalone="no"?>
<!-- Created with Inkscape (http://www.inkscape.org/) -->

<svg
   width="210mm"
   height="297mm"
   viewBox="0 0 210 297"
   version="1.1"
   id="svg5"
   inkscape:version="1.1.2 (0a00cf5339, 2022-02-04)"
   sodipodi:docname="prometheus-manager_logo.svg"
   xmlns:inkscape="http://www.inkscape.org/namespaces/inkscape"
   xmlns:sodipodi="http://sodipodi.sourceforge.net/DTD/sodipodi-0.dtd"
   xmlns="http://www.w3.org/2000/svg"
   xmlns:svg="http://www.w3.org/2000/svg">
  <sodipodi:namedview
     id="namedview7"
     pagecolor="#ffffff"
     bordercolor="#999999"
     borderopacity="1"
     inkscape:pageshadow="0"
     inkscape:pageopacity="0"
     inkscape:pagecheckerboard="0"
     inkscape:document-units="mm"
     showgrid="false"
     inkscape:zoom="0.38752104"
     inkscape:cx="-519.97176"
     inkscape:cy="318.69237"
     inkscape:window-width="1920"
     inkscape:window-height="1055"
     inkscape:window-x="0"
     inkscape:window-y="145"
     inkscape:window-maximized="1"
     inkscape:current-layer="layer5" />
  <defs
     id="defs2">
    <linearGradient
       id="a"
       y2="103.02126"
       gradientTransform="matrix(0.22548372,0,0,0.31046295,32.304217,18.657803)"
       x1="718.96136"
       y1="52.294209"
       x2="148.82425"
       gradientUnits="userSpaceOnUse">
      <stop
         stop-color="#f00"
         offset="0"
         id="stop38331" />
      <stop
         stop-color="#ff0"
         offset="1"
         id="stop38333" />
    </linearGradient>
  </defs>
  <g
     inkscape:groupmode="layer"
     id="layer5"
     inkscape:label="Flame"
     style="display:inline">
    <path
       d="m 108.48834,24.497157 c -7.24376,48.188563 -30.223348,48.627771 -32.742188,73.538292 -2.53087,25.021641 24.508618,40.457431 28.961298,41.507831 0,0 -12.702389,-13.83083 -11.508059,-25.63839 0.82704,-8.17642 4.40108,-11.13631 11.146899,-20.084518 4.84849,-6.431492 10.32378,-15.256669 14.34888,-28.291896 14.32455,11.808354 20.46711,18.679319 23.32885,32.937979 2.86173,14.258395 -8.95588,39.896515 -8.95588,39.896515 42.74343,-30.33712 31.79498,-76.649785 -24.58086,-113.866078 z"
       fill="url(#a)"
       fill-rule="evenodd"
       stroke-width="0"
       id="path38338"
       style="display:inline;fill:url(#a);fill-opacity:1" />
  </g>
  <g
     inkscape:groupmode="layer"
     id="layer2"
     inkscape:label="Torche"
     style="display:inline">
    <path
       style="fill:#000000;fill-opacity:1;stroke:#000000;stroke-width:1.565;stroke-linecap:butt;stroke-linejoin:miter;stroke-miterlimit:4;stroke-dasharray:none;stroke-opacity:1"
       d="m 59.783499,261.72245 27.870355,-110.28284 -8.713369,-6.38655 c 17.159756,-1.22333 33.681205,3.38144 46.148645,20.0058 l -11.45807,-1.9305 -47.518392,101.3969 z"
       id="path55"
       sodipodi:nodetypes="ccccccc" />
    <path
       style="display:inline;fill:#000002;fill-opacity:1;stroke:none;stroke-width:0.264583px;stroke-linecap:butt;stroke-linejoin:miter;stroke-opacity:1"
       d="m 129.20792,161.75665 5.71209,-9.38005 c -11.32956,-16.75483 -29.5728,-24.92276 -52.296853,-22.32558 l -3.939709,9.67308 c 20.246563,-3.00397 40.664322,4.93213 50.524472,22.03255 z"
       id="path36558"
       sodipodi:nodetypes="ccccc" />
  </g>
  <g
     inkscape:groupmode="layer"
     id="layer4"
     inkscape:label="Hand bg"
     style="display:inline">
    <g
       inkscape:label="Clip"
       id="use9564"
       style="fill:#ffffff;fill-opacity:1;stroke:#0b0000;stroke-opacity:1"
       transform="matrix(-1,0,0,1,173.87085,44.655837)">
      <g
         id="g9577"
         style="fill:#ffffff;fill-opacity:1;stroke:none;stroke-opacity:1">
        <path
           id="path9575"
           style="fill:#ffffff;fill-opacity:1;stroke:none;stroke-width:0.264583px;stroke-linecap:butt;stroke-linejoin:miter;stroke-opacity:1"
           d="m 122.29927,176.56507 -59.44384,-43.24608 68.36563,37.41894 M 62.85543,133.31899 c 5.621844,-5.48196 28.036051,-13.15593 33.14111,-12.07718 5.52739,1.16798 17.50347,4.90965 20.55852,9.38565 5.28999,18.56762 5.03579,23.23701 14.666,40.11047 M 62.85543,133.31899 c -0.943147,2.54898 -3.873209,6.93153 4.376228,9.48474 -0.920372,3.63354 -0.535114,8.01051 2.105867,11.29249 0.277763,2.86469 -2.469229,6.39919 3.619529,9.72249 0.819758,2.96689 -0.07401,7.50809 3.405507,7.78393 14.994288,-1.08789 17.857174,-5.5428 21.331397,-8.94106 9.840242,8.13759 13.597432,13.77376 16.648602,14.88487 2.52135,0.31061 6.48008,-0.82738 7.95671,-0.98138"
           sodipodi:nodetypes="ccccscccccccccc" />
      </g>
    </g>
  </g>
  <g
     inkscape:groupmode="layer"
     id="layer3"
     inkscape:label="Hand"
     style="display:inline">
    <path
       style="display:inline;fill:#000000;stroke-width:0.14603"
       d="m 77.188707,208.29431 c 0.03077,5.67461 15.000894,8.77317 15.794864,8.88308 2.16873,0.47978 3.98831,0.50768 5.67528,-0.35433 2.273729,-1.21597 2.951409,-3.33395 3.026139,-5.17452 0.0843,-2.15662 0.0894,-2.17406 0.70953,-2.41299 2.16045,-0.83245 3.67762,-3.56116 3.71219,-6.67653 0.0114,-1.02488 -0.0459,-1.41761 -0.28052,-1.9242 -0.3937,-0.85007 -0.37466,-1.03972 0.16268,-1.62021 1.52394,-1.64636 2.08572,-2.68567 2.45264,-4.53745 0.2532,-1.27783 0.17092,-3.36295 -0.17242,-4.3696 -0.12243,-0.35893 -0.25703,-0.77014 -0.29911,-0.91379 -0.0611,-0.20868 0.23081,-0.42137 1.45216,-1.05793 1.17991,-0.61496 1.72654,-1.00704 2.39587,-1.7185 0.91036,-0.96765 1.15941,-1.76412 1.32461,-2.26815 0.41389,-1.17664 0.48037,-1.86634 0.48274,-2.6013 0,-1.38385 -0.31672,-2.35487 -0.31672,-2.35487 -1.299,-4.92508 -4.61655,-6.12391 -8.87697,-8.80747 -9.439999,-5.66925 -17.331504,-9.2248 -26.446154,-6.90016 -0.0629,0.0666 -0.73041,0.25916 -1.48336,0.42783 -0.75294,0.16866 -1.54475,0.40239 -1.75956,0.51938 -0.21481,0.117 -0.73895,0.29494 -1.16476,0.39543 -0.42581,0.10048 -0.90089,0.24039 -1.05574,0.31093 -0.15484,0.0705 -0.88329,0.27539 -1.61879,0.45522 -8.599512,3.50728 -15.849698,4.28903 -16.48986,12.02046 -1.047344,19.25553 -6.351977,25.38419 -11.043509,35.06328 l 1.367418,0.44529 c 0,0 1.359761,-0.45927 4.085141,-5.15336 0.469774,-0.82026 0.918519,-1.77393 1.33681,-2.45674 0.85616,-1.39321 1.0406,-1.74775 2.16739,-4.16603 1.755815,-3.88407 3.31631,-7.68192 4.26591,-12.11937 0.0413,-0.2083 0.23026,-1.02636 0.41983,-1.81791 0.31688,-1.32306 0.49698,-2.05298 1.36407,-5.52854 0.677424,-3.12612 0.67578,-5.47745 2.46944,-6.87854 3.558503,-3.38717 7.886446,-4.39625 12.07659,-5.69218 0.84125,-0.41406 8.36192,-2.33557 8.6578,-2.33557 0.33617,0 0.11423,0.66064 -0.063,1.69594 -4.68095,2.33863 -11.395189,3.28839 -15.22404,5.56405 -1.507398,0.74793 -0.946818,1.81758 0.21361,1.83831 0,0 0.37699,0.15455 3.27031,-0.57963 1.56534,-0.39721 2.45532,-0.72696 3.94141,-1.46033 0.503235,-0.24834 1.3267,-0.57731 1.82994,-0.73103 0.50323,-0.15373 1.04165,-0.34389 1.1965,-0.42258 1.20131,-0.61051 3.52319,-1.30153 4.85654,-1.44538 0.69058,-0.0745 1.03599,-0.0397 1.40765,0.14169 0.90958,0.444 1.85215,1.08598 2.37079,1.61474 0.41845,0.42662 2.34905,1.87297 3.75231,2.81112 3.441755,1.91039 6.518325,4.10371 10.081245,5.69547 0.39063,0.17377 0.6935,0.53076 1.300279,1.53258 0.61896,0.88834 1.58556,2.82877 1.58556,2.82877 0.0565,0.20992 0.17159,0.48126 0.10367,1.18058 -0.10427,1.52174 -1.89795,2.20471 -3.136189,2.10446 -1.1697,-0.20765 -2.31226,-1.18883 -2.35364,-2.27238 -0.0287,-0.91159 -0.23321,-1.82291 -0.42439,-1.89149 -0.0892,-0.032 -0.40141,0.16691 -0.69377,0.44203 -0.53156,0.50023 -0.93454,0.54761 -2.6165,0.46647 -3.339299,-0.10978 -6.786442,-1.39796 -9.195325,-3.40721 -1.08253,-0.91407 -4.28556,-3.14894 -4.51309,-3.14894 -0.29774,0 -0.25225,0.24768 0.29187,1.58911 0.27002,0.66571 0.49096,1.37206 0.49096,1.56966 0,0.3306 -0.0405,0.35109 -0.50793,0.25672 -0.27936,-0.0564 -0.77028,-0.22789 -1.09093,-0.38109 -0.32065,-0.1532 -0.84689,-0.3951 -1.16942,-0.53755 -0.32254,-0.14245 -0.86096,-0.52198 -1.1965,-0.8434 -0.68934,-0.66033 -0.72411,-0.67424 -0.95081,-0.38026 -0.243872,0.68896 0.41112,1.60288 0.41112,1.60288 0,0 0.76519,1.38312 1.23983,1.67249 0.20843,0.12706 0.66401,0.40853 1.0124,0.62549 0.34839,0.21696 0.84911,0.43721 1.1127,0.48946 0.82817,0.16415 0.89519,0.32521 0.48588,1.16767 -0.57449,1.18241 -0.72318,1.97451 -1.10643,5.89416 -0.21967,2.24652 -0.34887,3.09907 -0.63135,4.16603 -1.192414,3.79807 -2.968694,9.05655 -4.57711,11.72444 -0.23188,0.36602 -0.48905,0.77504 -0.57149,0.90895 -0.32177,0.52257 -1.71191,1.96659 -2.31348,2.40315 -2.644812,2.49823 -5.198915,5.14989 -7.64121,7.76303 l -1.599163,1.70095 2.46048,0.0455 c 4.603598,-3.84933 9.863315,-10.39105 13.769084,-12.67529 z m 14.618124,6.70716 c -3.289898,-1.33133 -11.144426,-2.68043 -11.542407,-5.5008 -0.284557,-2.01657 1.526989,-3.49346 2.984407,-3.20978 3.788265,0.87776 7.92821,2.28043 11.94873,2.75412 0.30093,0.0125 0.67989,0.5172 0.67989,0.5172 2.43948,2.83202 0.38841,5.08983 -2.60131,5.60192 -0.56543,0.0842 -0.99403,0.0297 -1.46931,-0.16266 z M 81.065356,201.77473 c -0.769876,-1.38538 -0.270908,-3.30057 0.867023,-3.76201 1.507119,-0.62505 6.921914,0.57237 13.510702,2.30468 0.51609,0.1411 1.05176,0.37747 1.37628,0.68003 0.93595,0.87261 1.39473,3.4766 -1.40822,4.78011 -0.67859,0.30376 -1.07001,0.24978 -1.92115,0.24494 -2.789498,-0.0228 -11.495107,-2.65761 -12.424635,-4.24775 z m 15.258815,-3.97261 c -2.94996,-0.84838 -11.289517,-2.07139 -12.664075,-3.92968 -0.48329,-0.94787 -0.46561,-1.71617 -0.0485,-2.82124 0.35912,-0.95141 1.01929,-1.43158 1.820699,-1.73782 1.458985,-0.5126 4.780949,0.38089 7.587186,1.06778 1.61806,1.11037 1.62263,1.34527 2.82623,2.69178 0.4405,0.50395 2.6675,1.61821 3.06137,1.82635 0.88888,0.46969 1.185139,1.40848 0.43441,2.61839 -0.86285,1.48725 -1.56629,0.58935 -3.01732,0.28444 z"
       id="path11831"
       sodipodi:nodetypes="ccccsssssssssscscccsssccccccsccccccscccssssscscccccccssccsssssssccsssssccccccccssccccccccscccccscccsc" />
  </g>
</svg>
